<svg width="166" height="102" viewBox="0 0 166 102" fill="none" xmlns="http://www.w3.org/2000/svg">
<path d="M72 33.1111C66.4 51.5111 22.3333 86.1111 1 101.111L72 4.11111C72 4.11111 126 -2.88889 88 4.11111C85 6.11111 77.6 14.7111 72 33.1111Z" fill="#3A6FDB"/>
<path d="M77 86.1111C81 74.1111 78 42.1111 80 24.1111C81.5301 11.3111 93 5.61111 102.5 4.11111L93 86.1111C86 91.1111 73 98.1111 77 86.1111Z" fill="#3A6FDB"/>
<path d="M72 33.1111C66.4 51.5111 22.3333 86.1111 1 101.111L72 4.11111C72 4.11111 126 -2.88889 88 4.11111C85 6.11111 77.6 14.7111 72 33.1111Z" stroke="#3A6FDB"/>
<path d="M77 86.1111C81 74.1111 78 42.1111 80 24.1111C81.5301 11.3111 93 5.61111 102.5 4.11111L93 86.1111C86 91.1111 73 98.1111 77 86.1111Z" stroke="#3A6FDB"/>
<path d="M113 40.6111V86.6111C115.5 90.6111 127 90.6111 127 86.6111V52.6111L120.5 41.6111L113 40.6111Z" fill="#3A6FDB"/>
<path d="M113 4.6111V34.1111L122.5 36.6111L134 51.1111H154V86.6111C154 86.6111 159 93.1111 165.5 89.6111V9.6111C165.5 9.6111 157 9.6111 154 15.1111V40.6111H134L127 34.1111V9.6111C127 9.6111 116.167 3.44444 113 4.6111Z" fill="#3A6FDB"/>
<path d="M113 40.6111V86.6111C115.5 90.6111 127 90.6111 127 86.6111V52.6111L120.5 41.6111L113 40.6111Z" stroke="#3A6FDB"/>
<path d="M113 4.6111V34.1111L122.5 36.6111L134 51.1111H154V86.6111C154 86.6111 159 93.1111 165.5 89.6111V9.6111C165.5 9.6111 157 9.6111 154 15.1111V40.6111H134L127 34.1111V9.6111C127 9.6111 116.167 3.44444 113 4.6111Z" stroke="#3A6FDB"/>
</svg>
